# xmcd
#
# Track frame offsets: 
#        150
#        15483
#        32411
#        49794
#        65185
#        78775
#        91283
#        107046
#        123842
#        139657
#        153644
#        168399
#        185685
#
# Disc length: 2727 seconds
#
# Revision: 1
# Processed by: cddbd v1.5.2PL0 Copyright (c) Steve Scherf et al.
# Submitted via: ExactAudioCopy v0.99pb5
#
DISCID=a30aa50d
DTITLE=Σωκράτης Μάλαμας - Ο φύλακας κι ο βασιλιάς
DYEAR=2000
DGENRE=Folk
TTITLE0=Ο φύλακας κι ο βασιλιάς
TTITLE1=Τίποτα δε χάθηκε
TTITLE2=Φύλλα αλκαλικά
TTITLE3=Το μετάξι
TTITLE4=Όλα ζούν αν τα θυμάσαι
TTITLE5=Ανήσυχες μέρες
TTITLE6=Του χρόνου τα σκυλιά
TTITLE7=Πουλί σε δέντρο αρχοντικό
TTITLE8=’νοιγμα στα πέρατα
TTITLE9=Το λιμάνι
TTITLE10=Έπιασε βροχή
TTITLE11=Πριγκηπέσσα
TTITLE12=Χαμένο ρούχο
EXTD=
EXTT0=
EXTT1=
EXTT2=
EXTT3=
EXTT4=
EXTT5=
EXTT6=
EXTT7=
EXTT8=
EXTT9=
EXTT10=
EXTT11=
EXTT12=
PLAYORDER=
